<svg width="24" height="24" viewBox="0 0 24 24" fill="none" xmlns="http://www.w3.org/2000/svg">
<path d="M0 12C0 5.37258 5.37258 0 12 0V0C18.6274 0 24 5.37258 24 12V12C24 18.6274 18.6274 24 12 24V24C5.37258 24 0 18.6274 0 12V12Z" fill="#2B2F36" fill-opacity="0.1"/>
<path d="M15.4393 11.25L5.25 11.25C4.83579 11.25 4.5 11.5858 4.5 12C4.5 12.4142 4.83579 12.75 5.25 12.75L15.4393 12.75L13.7197 14.4697C13.4268 14.7626 13.4268 15.2374 13.7197 15.5303C14.0126 15.8232 14.4874 15.8232 14.7803 15.5303L17.6389 12.6718C17.6643 12.6464 17.6879 12.6199 17.7098 12.5926C17.8864 12.4553 18 12.2409 18 12C18 11.7591 17.8864 11.5447 17.7098 11.4074C17.6879 11.3801 17.6643 11.3536 17.6389 11.3282L14.7803 8.46967C14.4874 8.17678 14.0126 8.17678 13.7197 8.46967C13.4268 8.76256 13.4268 9.23744 13.7197 9.53033L15.4393 11.25Z" fill="#2B2F36"/>
</svg>
