<svg width="24" height="24" viewBox="0 0 24 24" fill="none" xmlns="http://www.w3.org/2000/svg">
<path d="M0 12C0 5.37258 5.37258 0 12 0V0C18.6274 0 24 5.37258 24 12V12C24 18.6274 18.6274 24 12 24V24C5.37258 24 0 18.6274 0 12V12Z" fill="#2B2F36" fill-opacity="0.1"/>
<path d="M7.56066 12.75L17.75 12.75C18.1642 12.75 18.5 12.4142 18.5 12C18.5 11.5858 18.1642 11.25 17.75 11.25L7.56066 11.25L9.28033 9.53033C9.57322 9.23744 9.57322 8.76256 9.28033 8.46967C8.98744 8.17678 8.51256 8.17678 8.21967 8.46967L5.36109 11.3282C5.33572 11.3536 5.31209 11.3801 5.29019 11.4074C5.11361 11.5447 5 11.7591 5 12C5 12.2409 5.11362 12.4553 5.29019 12.5926C5.31209 12.6199 5.33572 12.6464 5.36109 12.6718L8.21967 15.5303C8.51256 15.8232 8.98744 15.8232 9.28033 15.5303C9.57322 15.2374 9.57322 14.7626 9.28033 14.4697L7.56066 12.75Z" fill="#2B2F36"/>
</svg>
