<svg width="14" height="14" viewBox="0 0 14 14" fill="none" xmlns="http://www.w3.org/2000/svg">
<path d="M8.3759 5.68779C8.4857 5.61489 8.4857 5.46909 8.3759 5.39619L6.45433 4.12044C6.31861 4.03033 6.12492 4.11606 6.12492 4.26624V6.81774C6.12492 6.96793 6.31861 7.05365 6.45433 6.96354L8.3759 5.68779Z" fill="#6b4aff"/>
<path d="M0.583252 1.75033C0.583252 1.42816 0.844419 1.16699 1.16659 1.16699H12.8333C13.1554 1.16699 13.4166 1.42816 13.4166 1.75033C13.4166 2.07249 13.1554 2.33366 12.8333 2.33366H12.2499V8.75033C12.2499 9.39466 11.7276 9.91699 11.0833 9.91699H7.58325V12.2503H9.91659C10.2388 12.2503 10.4999 12.5115 10.4999 12.8337C10.4999 13.1558 10.2388 13.417 9.91659 13.417H4.08325C3.76109 13.417 3.49992 13.1558 3.49992 12.8337C3.49992 12.5115 3.76109 12.2503 4.08325 12.2503H6.41659V9.91699H2.91659C2.27225 9.91699 1.74992 9.39466 1.74992 8.75033V2.33366H1.16659C0.844419 2.33366 0.583252 2.07249 0.583252 1.75033ZM2.91659 8.75033H11.0833V2.33366H2.91659V8.75033Z" fill="#6b4aff"/>
</svg>
